<svg fill="#4b3d3d" xmlns="http://www.w3.org/2000/svg" height="24" viewBox="0 -960 960 960" width="24"><path d="M790.692-110.924 537.461-364.155q-30 23.769-73.5 37.269t-86.192 13.5q-112.55 0-190.582-78.014t-78.032-190.537q0-112.524 78.014-190.601 78.014-78.076 190.538-78.076 112.523 0 190.6 78.032T646.384-582q0 43.846-12.885 84.846-12.885 41-36.885 71.846l254.231 254.231-60.153 60.153Zm-412.923-288.46q77.308 0 129.962-52.654Q560.385-504.692 560.385-582q0-77.308-52.654-129.962-52.654-52.654-129.962-52.654-77.308 0-129.962 52.654Q195.154-659.308 195.154-582q0 77.308 52.653 129.962 52.654 52.654 129.962 52.654Z"/></svg>